<svg id="Layer_1" data-name="Layer 1" xmlns="http://www.w3.org/2000/svg" viewBox="0 0 98.76 90.63"><defs><style>.cls-1{fill:#231f20;}</style></defs><path class="cls-1" d="M58.4,33.49V68.14H79.73V33.49H98v90.63H79.73V83.88H58.4v40.24H40.12V33.49Z" transform="translate(-40.12 -33.49)"/><path class="cls-1" d="M110.32,33.49a44.33,44.33,0,0,1,10.34,1.14,21.07,21.07,0,0,1,8.19,3.81,17.63,17.63,0,0,1,5.33,7.11,27.68,27.68,0,0,1,1.91,10.91,22.68,22.68,0,0,1-3.43,12.63,17.21,17.21,0,0,1-10.28,7.18v.25A18,18,0,0,1,134.44,83q4.44,5.46,4.44,14.6a36.33,36.33,0,0,1-1.4,10.15,20.73,20.73,0,0,1-4.76,8.45A23.79,23.79,0,0,1,124,122a36.18,36.18,0,0,1-13.39,2.16H79.73V33.49Zm-7.11,37.19q7.62,0,11.11-2.73t3.49-9.2q0-6.48-3.18-9.14t-10-2.67H98V70.68Zm1.9,40q6.6,0,10.67-2.92T119.84,97a17.12,17.12,0,0,0-1.08-6.54,11,11,0,0,0-2.92-4.19A10.46,10.46,0,0,0,111.46,84a23.11,23.11,0,0,0-5.58-.64H98v27.29Z" transform="translate(-40.12 -33.49)"/></svg>